:SAMPLES-PER-SECOND 24
:FULLY-SPECIFIED
:DEGREES
570
root  -2.29666 39.4027 36.3571 83.5513 -41.8312 -82.5658
RightUpLeg  2.57271 -4.97975 -51.9267
RightLeg  17.8715 22.8474 7.67331
RightFoot  -9.44529 -0.467492 23.7669
RightToes  -1.46203e-006 3.27826e-006 1.63871e-007
Spine  5.2097 -0.114819 -1.35754
Spine1  8.62043 -8.81707 28.6412
HEad  -1.47943 -48.0712 24.5371
LeftShoulder1  2.19182 -3.77325 -23.8915
LeftArm  18.7372 -11.4522 -49.6501
LeftForeArm  80.2727 -79.4111 -91.1273
LeftHand  0.737167 9.3881 21.5186
RightShoulder  3.67378 5.81574 33.5427
RightArm  -23.9816 -22.2606 13.9916
RightForeArm  17.9671 67.4153 26.6382
RightHand  -2.27852 4.94496 -25.4725
LeftUpLeg  -15.6266 25.3072 34.5549
LeftLeg  26.9918 20.515 11.302
LeftFoot  -23.2034 1.31171 11.2509
LeftToes  1.24767e-006 1.47042e-008 1.32732e-009
571
root  -1.7926 39.6329 35.9279 90.0222 -43.5863 -88.5794
RightUpLeg  -9.54687 -8.32522 -50.3005
RightLeg  34.4624 22.3828 15.5177
RightFoot  -11.0202 -0.145742 24.644
RightToes  -1.46203e-006 3.27826e-006 1.63871e-007
Spine  6.74237 -0.0525342 -1.05345
Spine1  7.89912 -8.25081 28.2876
HEad  -2.0869 -44.2886 24.558
LeftShoulder1  2.29384 -3.9822 -24.4407
LeftArm  15.4431 -5.07192 -48.0643
LeftForeArm  92.0625 -79.2309 -101.936
LeftHand  0.673779 9.07272 21.3884
RightShoulder  3.83696 6.01054 34.4415
RightArm  -23.7256 -17.0741 13.8265
RightForeArm  19.2127 67.1939 26.1189
RightHand  -2.15839 4.76737 -24.588
LeftUpLeg  -14.4792 25.8771 33.5123
LeftLeg  25.0713 24.0849 12.0734
LeftFoot  -22.4847 1.52728 14.185
LeftToes  1.24767e-006 1.47042e-008 1.32732e-009
572
root  -1.24589 40.0048 34.6313 93.862 -47.49 -92.3641
RightUpLeg  -22.9929 -13.9285 -45.0111
RightLeg  67.6383 12.178 28.4056
RightFoot  -11.0471 -0.138886 24.6986
RightToes  -1.46203e-006 3.27826e-006 1.63871e-007
Spine  8.48099 -0.584391 -6.25274
Spine1  8.00391 -9.35703 27.2303
HEad  -0.285914 -42.7367 24.1041
LeftShoulder1  2.37257 -4.23487 -24.4605
LeftArm  14.5589 -4.72371 -46.5889
LeftForeArm  80.9435 -79.4516 -90.3177
LeftHand  0.676481 8.85588 22.692
RightShoulder  4.05759 6.22865 35.7853
RightArm  -22.1493 -15.7118 16.1382
RightForeArm  24.3643 68.5955 27.6885
RightHand  -2.04759 4.2165 -24.6568
LeftUpLeg  -13.3397 28.1574 31.6319
LeftLeg  22.2726 23.4036 10.3112
LeftFoot  -19.5522 1.01331 12.3756
LeftToes  1.24767e-006 1.47042e-008 1.32732e-009
573
root  -1.04431 40.1088 33.9171 95.9335 -52.0318 -94.8426
RightUpLeg  -29.6864 -20.0824 -35.4655
RightLeg  84.9819 1.88656 27.3894
RightFoot  -10.1778 -0.303013 22.6033
RightToes  -1.46203e-006 3.27826e-006 1.63871e-007
Spine  8.88937 -1.45986 -8.88847
Spine1  8.32216 -10.0869 24.7329
HEad  0.921915 -42.8377 21.8177
LeftShoulder1  2.28622 -4.05943 -24.004
LeftArm  16.9929 -8.09515 -45.2935
LeftForeArm  62.5885 -78.9478 -71.5372
LeftHand  0.621816 8.66821 22.1316
RightShoulder  4.07828 6.24053 35.9416
RightArm  -20.157 -20.9329 19.9163
RightForeArm  32.076 72.4789 35.1575
RightHand  -1.7907 3.32512 -23.7692
LeftUpLeg  -12.2329 26.5922 28.6151
LeftLeg  21.8569 26.2186 10.1335
LeftFoot  -17.0738 0.646766 10.9029
LeftToes  1.24767e-006 1.47042e-008 1.32732e-009
574
root  -1.17288 40.0514 33.8371 101.891 -55.7527 -101.43
RightUpLeg  -35.2448 -24.7375 -21.2533
RightLeg  91.3592 -1.41209 26.6297
RightFoot  -7.58214 -0.772997 21.7564
RightToes  -1.46203e-006 3.27826e-006 1.63871e-007
Spine  7.82501 -1.94351 -8.95518
Spine1  8.85877 -9.73132 22.5161
HEad  0.437979 -41.1688 18.7788
LeftShoulder1  2.1462 -3.66684 -23.6913
LeftArm  17.0501 -8.08268 -44.305
LeftForeArm  64.834 -79.0711 -74.6433
LeftHand  0.557086 8.49507 21.0575
RightShoulder  4.08 6.25346 35.9043
RightArm  -17.0013 -25.2041 22.1845
RightForeArm  41.4132 75.0862 42.3102
RightHand  -1.52061 3.04835 -20.9401
LeftUpLeg  -10.1301 21.7893 24.9403
LeftLeg  22.8297 34.127 12.6409
LeftFoot  -16.4432 0.600546 11.1985
LeftToes  1.24767e-006 1.47042e-008 1.32732e-009
575
root  -1.40189 39.7739 33.484 109.765 -60.1788 -109.688
RightUpLeg  -36.3387 -27.1125 -10.1937
RightLeg  87.3405 0.636288 28.2705
RightFoot  -0.503171 -2.11339 21.9888
RightToes  -1.46203e-006 3.27826e-006 1.63871e-007
Spine  6.44937 -2.33766 -12.008
Spine1  9.08755 -9.79358 21.3756
HEad  0.3737 -39.2069 16.267
LeftShoulder1  2.13324 -3.64966 -23.5762
LeftArm  14.8139 -5.00896 -43.3809
LeftForeArm  73.6648 -79.3276 -85.7314
LeftHand  0.5885 8.61126 21.3948
RightShoulder  4.08042 6.27305 35.8263
RightArm  -13.6435 -26.7263 23.7042
RightForeArm  46.055 75.5695 43.1757
RightHand  -1.36786 3.03321 -18.9357
LeftUpLeg  -9.35417 18.718 20.2925
LeftLeg  26.3007 39.4567 15.5436
LeftFoot  -17.0657 0.565969 9.24247
LeftToes  1.24767e-006 1.47042e-008 1.32732e-009
576
root  -1.70661 39.6393 33.4457 113.831 -64.4387 -114.006
RightUpLeg  -31.8613 -29.1328 -4.77836
RightLeg  75.299 7.49599 29.2296
RightFoot  6.32268 -3.79346 24.3116
RightToes  -1.46203e-006 3.27826e-006 1.63871e-007
Spine  5.96543 -3.27466 -13.4124
Spine1  8.40137 -10.2923 21.0156
HEad  -0.524073 -38.8078 14.9403
LeftShoulder1  2.12445 -3.77359 -22.9129
LeftArm  13.7919 -2.43307 -43.0576
LeftForeArm  73.3682 -79.2771 -86.8801
LeftHand  0.653353 8.82613 22.1693
RightShoulder  3.98357 6.18502 35.2177
RightArm  -11.8522 -28.4632 25.7663
RightForeArm  48.0642 75.8213 43.8119
RightHand  -1.27243 2.72866 -18.2867
LeftUpLeg  -8.31713 16.4226 15.7878
LeftLeg  26.5158 42.4018 15.3657
LeftFoot  -16.7179 0.464764 7.74758
LeftToes  1.24767e-006 1.47042e-008 1.32732e-009
577
root  -2.01536 39.5741 33.5495 116.119 -68.0798 -116.907
RightUpLeg  -24.5469 -28.9249 -3.06941
RightLeg  59.9416 16.1405 27.2191
RightFoot  9.58194 -5.62674 30.1761
RightToes  -1.46203e-006 3.27826e-006 1.63871e-007
Spine  5.77518 -3.85726 -12.6747
Spine1  8.54629 -10.5539 20.3975
HEad  -4.39121 -39.0505 15.2514
LeftShoulder1  2.06896 -3.68955 -22.4588
LeftArm  13.5749 -0.620646 -42.8711
LeftForeArm  67.4286 -79.1561 -81.151
LeftHand  0.673813 8.87766 22.4908
RightShoulder  4.00245 6.19354 35.3721
RightArm  -11.4182 -28.6549 26.1992
RightForeArm  48.1878 75.8676 43.9176
RightHand  -1.11913 2.38889 -16.7976
LeftUpLeg  -6.7616 13.7324 11.3755
LeftLeg  25.152 44.8841 14.8167
LeftFoot  -16.5198 0.453917 7.80781
LeftToes  1.24767e-006 1.47042e-008 1.32732e-009
578
root  -2.25831 39.297 33.5659 119.377 -72.0827 -120.597
RightUpLeg  -17.918 -24.376 -4.17363
RightLeg  46.5597 22.1908 22.9349
RightFoot  9.15632 -6.10493 33.3935
RightToes  -1.46203e-006 3.27826e-006 1.63871e-007
Spine  5.42393 -4.07247 -12.5396
Spine1  8.90364 -10.6697 20.0755
HEad  -8.15387 -39.5665 15.0564
LeftShoulder1  2.09573 -3.67711 -22.904
LeftArm  13.1033 2.12093 -42.2401
LeftForeArm  58.9913 -78.7885 -73.0577
LeftHand  0.62479 8.65975 22.2835
RightShoulder  4.08051 6.27298 35.8284
RightArm  -11.0982 -26.3514 25.6923
RightForeArm  39.9634 73.5388 36.4508
RightHand  -0.938607 1.71772 -15.4389
LeftUpLeg  -6.43009 14.9467 7.25207
LeftLeg  25.5672 43.3095 13.9147
LeftFoot  -18.1538 0.540371 7.22714
LeftToes  1.24767e-006 1.47042e-008 1.32732e-009
579
root  -2.37427 38.9137 33.6236 117.858 -76.477 -119.402
RightUpLeg  -13.0408 -19.1566 -5.88676
RightLeg  38.7273 22.4097 17.9694
RightFoot  3.77748 -3.45619 25.8309
RightToes  -1.46203e-006 3.27826e-006 1.63871e-007
Spine  6.51801 -4.40473 -11.2143
Spine1  7.53106 -10.5242 19.3645
HEad  -11.196 -40.9153 14.2196
LeftShoulder1  2.16288 -3.92802 -22.82
LeftArm  13.1023 5.52569 -41.7708
LeftForeArm  50.0327 -78.1203 -64.6685
LeftHand  0.497173 8.10242 21.5059
RightShoulder  3.93351 6.13121 34.9319
RightArm  -10.6268 -24.2917 27.0846
RightForeArm  28.6041 68.7282 27.1595
RightHand  -0.988615 1.61761 -16.4672
LeftUpLeg  -8.94018 32.9458 2.66596
LeftLeg  26.5897 22.1253 11.7588
LeftFoot  -19.8068 0.495647 5.08451
LeftToes  1.24767e-006 1.47042e-008 1.32732e-009
